<?xml version="1.0" encoding="UTF-8"?>
<svg xmlns="http://www.w3.org/2000/svg" viewBox="0 0 800 200" fill="none">
  <rect width="800" height="200" fill="#0d1117" rx="10"/>
  
  <!-- Title -->
  <text x="400" y="30" text-anchor="middle" fill="#58a6ff" font-family="system-ui, -apple-system, sans-serif" font-size="18" font-weight="bold">Agentic Workflow</text>
  
  <!-- Step 1: Reason -->
  <rect x="50" y="70" width="120" height="80" fill="#238636" rx="8"/>
  <text x="110" y="105" text-anchor="middle" fill="white" font-family="system-ui, -apple-system, sans-serif" font-size="14" font-weight="bold">REASON</text>
  <text x="110" y="125" text-anchor="middle" fill="#aff5b4" font-family="system-ui, -apple-system, sans-serif" font-size="10">What needs</text>
  <text x="110" y="138" text-anchor="middle" fill="#aff5b4" font-family="system-ui, -apple-system, sans-serif" font-size="10">attention?</text>
  
  <!-- Arrow 1 -->
  <line x1="170" y1="110" x2="205" y2="110" stroke="#8b949e" stroke-width="2"/>
  <polygon points="200,105 210,110 200,115" fill="#8b949e"/>
  
  <!-- Step 2: Decide -->
  <rect x="210" y="70" width="120" height="80" fill="#1f6feb" rx="8"/>
  <text x="270" y="105" text-anchor="middle" fill="white" font-family="system-ui, -apple-system, sans-serif" font-size="14" font-weight="bold">DECIDE</text>
  <text x="270" y="125" text-anchor="middle" fill="#a5d6ff" font-family="system-ui, -apple-system, sans-serif" font-size="10">How to solve</text>
  <text x="270" y="138" text-anchor="middle" fill="#a5d6ff" font-family="system-ui, -apple-system, sans-serif" font-size="10">this?</text>
  
  <!-- Arrow 2 -->
  <line x1="330" y1="110" x2="365" y2="110" stroke="#8b949e" stroke-width="2"/>
  <polygon points="360,105 370,110 360,115" fill="#8b949e"/>
  
  <!-- Step 3: Build -->
  <rect x="370" y="70" width="120" height="80" fill="#f78166" rx="8"/>
  <text x="430" y="105" text-anchor="middle" fill="white" font-family="system-ui, -apple-system, sans-serif" font-size="14" font-weight="bold">BUILD</text>
  <text x="430" y="125" text-anchor="middle" fill="#ffdcd7" font-family="system-ui, -apple-system, sans-serif" font-size="10">Create the</text>
  <text x="430" y="138" text-anchor="middle" fill="#ffdcd7" font-family="system-ui, -apple-system, sans-serif" font-size="10">solution</text>
  
  <!-- Arrow 3 -->
  <line x1="490" y1="110" x2="525" y2="110" stroke="#8b949e" stroke-width="2"/>
  <polygon points="520,105 530,110 520,115" fill="#8b949e"/>
  
  <!-- Step 4: Verify -->
  <rect x="530" y="70" width="120" height="80" fill="#8957e5" rx="8"/>
  <text x="590" y="105" text-anchor="middle" fill="white" font-family="system-ui, -apple-system, sans-serif" font-size="14" font-weight="bold">VERIFY</text>
  <text x="590" y="125" text-anchor="middle" fill="#d2a8ff" font-family="system-ui, -apple-system, sans-serif" font-size="10">Does it work?</text>
  <text x="590" y="138" text-anchor="middle" fill="#d2a8ff" font-family="system-ui, -apple-system, sans-serif" font-size="10">Prove it.</text>
  
  <!-- Arrow 4 -->
  <line x1="650" y1="110" x2="685" y2="110" stroke="#8b949e" stroke-width="2"/>
  <polygon points="680,105 690,110 680,115" fill="#8b949e"/>
  
  <!-- Step 5: Complete -->
  <rect x="690" y="70" width="90" height="80" fill="#3fb950" rx="8"/>
  <text x="735" y="105" text-anchor="middle" fill="white" font-family="system-ui, -apple-system, sans-serif" font-size="14" font-weight="bold">DONE</text>
  <text x="735" y="128" text-anchor="middle" fill="#aff5b4" font-family="system-ui, -apple-system, sans-serif" font-size="10">Stop. Not</text>
  <text x="735" y="141" text-anchor="middle" fill="#aff5b4" font-family="system-ui, -apple-system, sans-serif" font-size="10">endless.</text>
</svg>