<?xml version="1.0" encoding="UTF-8"?>
<svg xmlns="http://www.w3.org/2000/svg" viewBox="0 0 800 400" fill="none">
  <rect width="800" height="400" fill="#0d1117" rx="10"/>
  
  <!-- Title -->
  <text x="400" y="35" text-anchor="middle" fill="#58a6ff" font-family="system-ui, -apple-system, sans-serif" font-size="20" font-weight="bold">System Architecture</text>
  
  <!-- Core Box -->
  <rect x="250" y="60" width="300" height="200" fill="#161b22" stroke="#30363d" stroke-width="2" rx="10"/>
  <text x="400" y="90" text-anchor="middle" fill="#e6edf3" font-family="system-ui, -apple-system, sans-serif" font-size="16" font-weight="bold">Agentic Autonomy Core</text>
  
  <!-- Components inside -->
  <rect x="270" y="110" width="120" height="50" fill="#238636" rx="6"/>
  <text x="330" y="140" text-anchor="middle" fill="white" font-family="system-ui, -apple-system, sans-serif" font-size="12">autonomy CLI</text>
  
  <rect x="410" y="110" width="120" height="50" fill="#1f6feb" rx="6"/>
  <text x="470" y="140" text-anchor="middle" fill="white" font-family="system-ui, -apple-system, sans-serif" font-size="12">config.json</text>
  
  <rect x="270" y="180" width="120" height="50" fill="#8957e5" rx="6"/>
  <text x="330" y="210" text-anchor="middle" fill="white" font-family="system-ui, -apple-system, sans-serif" font-size="12">HEARTBEAT.md</text>
  
  <rect x="410" y="180" width="120" height="50" fill="#f78166" rx="6"/>
  <text x="470" y="210" text-anchor="middle" fill="white" font-family="system-ui, -apple-system, sans-serif" font-size="12">Task Manager</text>
  
  <!-- Data Layer -->
  <rect x="50" y="280" width="160" height="90" fill="#21262d" stroke="#30363d" stroke-width="2" rx="8"/>
  <text x="130" y="305" text-anchor="middle" fill="#e6edf3" font-family="system-ui, -apple-system, sans-serif" font-size="13" font-weight="bold">tasks/</text>
  <text x="130" y="325" text-anchor="middle" fill="#8b949e" font-family="system-ui, -apple-system, sans-serif" font-size="10">Active tasks</text>
  <text x="130" y="340" text-anchor="middle" fill="#8b949e" font-family="system-ui, -apple-system, sans-serif" font-size="10">(JSON)</text>
  
  <rect x="230" y="280" width="160" height="90" fill="#21262d" stroke="#30363d" stroke-width="2" rx="8"/>
  <text x="310" y="305" text-anchor="middle" fill="#e6edf3" font-family="system-ui, -apple-system, sans-serif" font-size="13" font-weight="bold">agents/</text>
  <text x="310" y="325" text-anchor="middle" fill="#8b949e" font-family="system-ui, -apple-system, sans-serif" font-size="10">Running agents</text>
  <text x="310" y="340" text-anchor="middle" fill="#8b949e" font-family="system-ui, -apple-system, sans-serif" font-size="10">sub-processes</text>
  
  <rect x="410" y="280" width="160" height="90" fill="#21262d" stroke="#30363d" stroke-width="2" rx="8"/>
  <text x="490" y="305" text-anchor="middle" fill="#e6edf3" font-family="system-ui, -apple-system, sans-serif" font-size="13" font-weight="bold">tools/</text>
  <text x="490" y="325" text-anchor="middle" fill="#8b949e" font-family="system-ui, -apple-system, sans-serif" font-size="10">Custom tools</text>
  <text x="490" y="340" text-anchor="middle" fill="#8b949e" font-family="system-ui, -apple-system, sans-serif" font-size="10">(created by AI)</text>
  
  <rect x="590" y="280" width="160" height="90" fill="#21262d" stroke="#30363d" stroke-width="2" rx="8"/>
  <text x="670" y="305" text-anchor="middle" fill="#e6edf3" font-family="system-ui, -apple-system, sans-serif" font-size="13" font-weight="bold">logs/</text>
  <text x="670" y="325" text-anchor="middle" fill="#8b949e" font-family="system-ui, -apple-system, sans-serif" font-size="10">Activity logs</text>
  <text x="670" y="340" text-anchor="middle" fill="#8b949e" font-family="system-ui, -apple-system, sans-serif" font-size="10">(JSONL)</text>
  
  <!-- Connection lines -->
  <path d="M 210 325 L 230 325" stroke="#30363d" stroke-width="2"/>
  <path d="M 390 325 L 410 325" stroke="#30363d" stroke-width="2"/>
  <path d="M 570 325 L 590 325" stroke="#30363d" stroke-width="2"/>
  <path d="M 250 220 L 210 220 L 210 280" stroke="#30363d" stroke-width="2"/>
  <path d="M 550 220 L 590 220 L 590 280" stroke="#30363d" stroke-width="2"/>
  
  <!-- External -->
  <rect x="50" y="70" width="120" height="50" fill="#21262d" stroke="#58a6ff" stroke-width="2" rx="8"/>
  <text x="110" y="90" text-anchor="middle" fill="#58a6ff" font-family="system-ui, -apple-system, sans-serif" font-size="12" font-weight="bold">OpenClaw</text>
  <text x="110" y="108" text-anchor="middle" fill="#8b949e" font-family="system-ui, -apple-system, sans-serif" font-size="10">Heartbeat</text>
  
  <!-- Arrow -->
  <path d="M 170 95 L 240 95" stroke="#58a6ff" stroke-width="2" marker-end="url(#arrowblue)"/>
  
  <!-- GitHub -->
  <rect x="630" y="70" width="120" height="50" fill="#21262d" stroke="#f78166" stroke-width="2" rx="8"/>
  <text x="690" y="90" text-anchor="middle" fill="#f78166" font-family="system-ui, -apple-system, sans-serif" font-size="12" font-weight="bold">GitHub</text>
  <text x="690" y="108" text-anchor="middle" fill="#8b949e" font-family="system-ui, -apple-system, sans-serif" font-size="10">Self-update</text>
  
  <!-- Arrow -->
  <path d="M 560 95 L 630 95" stroke="#f78166" stroke-width="2" marker-end="url(#arroworange)"/>
  
  <defs>
    <marker id="arrowblue" markerWidth="10" markerHeight="7" refX="9" refY="3.5" orient="auto">
      <polygon points="0 0, 10 3.5, 0 7" fill="#58a6ff"/>
    </marker>
    <marker id="arroworange" markerWidth="10" markerHeight="7" refX="9" refY="3.5" orient="auto">
      <polygon points="0 0, 10 3.5, 0 7" fill="#f78166"/>
    </marker>
  </defs>
</svg>
